<svg width="276" height="327" viewBox="0 0 276 327" fill="none" xmlns="http://www.w3.org/2000/svg">
<path fill-rule="evenodd" clip-rule="evenodd" d="M116.995 64.6107C112.888 59.7899 110.108 53.8819 110.572 47.2618C111.911 28.1874 138.463 32.3835 143.628 42.0106C148.793 51.6377 148.179 76.0576 141.504 77.7782C138.842 78.4644 133.171 76.7835 127.399 73.3046L131.022 98.9347H109.631L116.995 64.6107Z" fill="#D4A181"/>
<path fill-rule="evenodd" clip-rule="evenodd" d="M131.435 30.9151C128.616 30.4528 121.025 30.1349 119.625 30.1351C118.73 30.1351 117.761 30.3395 117.231 29.5181C116.797 28.8454 116.956 27.7077 116.826 26.9271C116.676 26.0203 116.463 25.1251 116.246 24.2323C115.632 21.6916 114.702 19.2744 113.401 17.005C110.961 12.7473 107.385 9.41227 102.871 7.4716C97.8869 5.32881 92.2464 4.83815 86.8848 5.27279C81.1472 5.73779 75.9533 7.63187 70.536 9.41432C65.3737 11.1128 59.9666 11.7814 54.5674 10.952C49.1274 10.1163 45.017 7.16789 40.4285 4.36946C35.7311 1.50453 30.3629 -0.369236 24.8098 0.0614986C19.6262 0.463709 14.8486 2.60404 10.5623 5.46322C6.55191 8.13833 3.24283 11.3568 1.37461 15.8866C-0.635178 20.7593 -0.633332 26.1079 2.67165 30.4142C7.46209 36.6563 16.3554 38.2704 23.7542 38.11C28.0338 38.0174 32.2369 37.2362 36.2773 35.8151C41.6658 33.9198 46.3222 30.7074 51.3632 28.1011C53.729 26.878 56.1743 25.8735 58.7375 25.15C61.2248 24.4475 63.6746 24.1254 65.9266 25.6279C68.309 27.2175 70.4438 28.7789 73.1692 29.774C75.7837 30.7286 78.5531 31.2625 81.3387 31.241C86.7584 31.1991 92.101 29.5105 97.3648 28.3793C101.657 27.4571 106.25 26.538 110.626 27.4245C112.452 27.7945 115.12 28.5583 115.779 30.4561C104.679 32.4679 100.319 46.1964 103.448 56.2745C105.137 61.7139 115.29 68.0726 119.238 65.213C121.739 63.4014 120.22 61.023 119.238 59.453C117.356 56.4462 116.712 52.584 120.194 50.4906C123.197 48.6852 126.355 52.9726 126.415 52.9679C127.241 52.9029 134.373 48.8689 139.288 42.9824C144.136 43.2698 144.871 40.0731 143.714 37.4588C142.556 34.8445 135.331 31.5543 131.435 30.9151Z" fill="#191847"/>
<path fill-rule="evenodd" clip-rule="evenodd" d="M230.41 317.893C218.99 292.617 210.732 270.607 207.416 258.995C201.74 239.113 197.422 221.617 196.331 215.083C193.728 199.503 216.351 198.595 219.341 206.339C223.867 218.058 231.768 256.564 241.262 314.726L230.41 317.893ZM97.944 238.57C108.422 234.428 145.115 221.467 162.812 217.8C167.898 216.747 172.827 215.768 177.461 214.883C191.235 212.254 198.371 237.103 185.105 239.012C152.067 243.767 105.23 248.677 101.222 249.228C95.6041 250 91.359 241.173 97.944 238.57Z" fill="#D4A181"/>
<path fill-rule="evenodd" clip-rule="evenodd" d="M185.915 208.045L129.239 179.194V172.913H135.979C190.81 186.885 218.829 195.839 220.035 199.775C220.048 199.817 220.06 199.86 220.071 199.902C220.098 199.939 220.126 199.975 220.152 200.012C231.019 214.956 237.526 287.915 239.662 293.378L218.84 296.485C210.875 266.949 185.391 246.373 186.068 210.998C185.885 209.96 185.839 208.976 185.915 208.045Z" fill="black"/>
<path fill-rule="evenodd" clip-rule="evenodd" d="M133.948 225.18C128.762 224.142 123.987 223.215 119.901 222.498C93.5062 217.869 85.8093 203.74 90.3601 172.913H138.992C146.936 175.195 188.22 192.508 209.641 201.717C223.818 207.811 219.349 229.782 211.32 235.5C211.277 235.851 211.132 236.089 210.875 236.196C167.687 254.095 133.522 244.703 122.109 247.704L116.83 231.051L133.948 225.18Z" fill="#333333"/>
<path fill-rule="evenodd" clip-rule="evenodd" d="M102.668 236.26C99.6271 236.739 97.4525 237.314 96.1439 237.984C94.5523 238.8 92.3384 240.224 89.5023 242.257C90.2589 243.887 97.0587 258.536 109.902 286.203C114.708 285.153 116.711 283.311 115.91 280.676C115.109 278.04 114.468 275.839 113.987 274.07L114.821 248.359C114.837 247.864 114.423 247.506 113.896 247.559C113.887 247.56 113.878 247.561 113.869 247.562L109.652 248.098C107.391 246.437 105.93 244.895 105.269 243.471C104.732 242.314 104.519 240.444 104.632 237.863L104.632 237.863C104.675 236.873 103.856 236.147 102.804 236.243C102.758 236.247 102.713 236.252 102.668 236.26Z" fill="black"/>
<path fill-rule="evenodd" clip-rule="evenodd" d="M225.213 313.206C224.216 315.868 223.717 317.86 223.717 319.181C223.717 320.788 223.985 323.134 224.521 326.217C226.385 326.217 243.142 326.217 274.792 326.217C276.098 321.899 275.344 319.567 272.53 319.223C269.715 318.878 267.377 318.567 265.515 318.29L242.15 307.873C241.7 307.673 241.173 307.875 240.973 308.325C240.969 308.332 240.966 308.34 240.963 308.348L239.461 311.991C236.855 313.207 234.738 313.815 233.109 313.815C231.785 313.815 229.957 313.28 227.625 312.211L227.625 312.211C226.73 311.801 225.672 312.194 225.262 313.089C225.244 313.127 225.228 313.166 225.213 313.206Z" fill="black"/>
<path fill-rule="evenodd" clip-rule="evenodd" d="M184.5 148.507L216.796 134.323C222.454 128.686 227.917 124.401 233.186 121.469C234.761 120.967 237.453 120.816 234.581 125.01C231.709 129.205 228.877 133.746 230.025 135.216C231.172 136.686 234.496 135.063 235.809 137.454C236.685 139.047 231.082 140.954 219 143.173L194.812 161.718L184.5 148.507ZM53.9314 152.413L72.1957 156.037C53.8278 190.268 43.9774 208.41 42.6446 210.464C39.6456 215.085 42.4437 223.555 43.4773 228.015C36.9931 229.524 39.5503 219.764 31.3447 221.802C23.855 223.662 17.5047 228.435 10.5209 221.998C9.6623 221.206 9.03375 218.733 11.9612 217.464C19.2546 214.303 30.0299 208.384 31.7772 206.086C34.1598 202.952 41.5445 185.061 53.9314 152.413Z" fill="#D4A181"/>
<path fill-rule="evenodd" clip-rule="evenodd" d="M121.837 84.0785L129.544 82.7565C146.331 99.0408 153.182 138.163 164.369 143.342C174.946 148.238 189.94 143.5 207.763 137.103L213.221 149.298C197.027 166.817 162.529 181.618 148.545 173.168C126.188 159.659 121.027 111.407 121.837 84.0785Z" fill="black"/>
<path fill-rule="evenodd" clip-rule="evenodd" d="M88.2392 180.935C119.142 180.935 141.874 180.935 156.434 180.935C159.55 180.935 158.963 176.435 158.513 174.165C153.314 147.96 133.02 119.712 133.02 82.4106L113.349 79.326C97.0787 105.493 91.4522 137.711 88.2392 180.935Z" fill="#DDE3E9"/>
<path fill-rule="evenodd" clip-rule="evenodd" d="M81.4375 154.403C67.5355 179.48 55.8501 197.534 46.3813 208.565L32.0871 205.765C41.2948 148.661 67.959 106.515 112.08 79.326H115.63L119.868 79.326C137.527 139.522 142.396 179.631 134.473 199.652H73.0871C74.0583 185.002 77.1723 169.509 81.4375 154.403H81.4375Z" fill="black"/>
</svg>
