<svg width="475" height="485" viewBox="0 0 475 485" fill="none" xmlns="http://www.w3.org/2000/svg">
<path d="M421.99 106C451.261 106 474.99 82.2711 474.99 53C474.99 23.7289 451.261 0 421.99 0C392.719 0 368.99 23.7289 368.99 53C368.99 82.2711 392.719 106 421.99 106Z" fill="#DDE3E9"/>
<path d="M421.99 14C423.647 14 424.99 12.6569 424.99 11C424.99 9.34315 423.647 8 421.99 8C420.333 8 418.99 9.34315 418.99 11C418.99 12.6569 420.333 14 421.99 14Z" fill="black" fill-opacity="0.1"/>
<path d="M379.99 56C381.647 56 382.99 54.6569 382.99 53C382.99 51.3431 381.647 50 379.99 50C378.333 50 376.99 51.3431 376.99 53C376.99 54.6569 378.333 56 379.99 56Z" fill="black" fill-opacity="0.1"/>
<path d="M463.99 56C465.647 56 466.99 54.6569 466.99 53C466.99 51.3431 465.647 50 463.99 50C462.333 50 460.99 51.3431 460.99 53C460.99 54.6569 462.333 56 463.99 56Z" fill="black" fill-opacity="0.1"/>
<path d="M421.99 98C423.647 98 424.99 96.6569 424.99 95C424.99 93.3431 423.647 92 421.99 92C420.333 92 418.99 93.3431 418.99 95C418.99 96.6569 420.333 98 421.99 98Z" fill="black" fill-opacity="0.1"/>
<path fill-rule="evenodd" clip-rule="evenodd" d="M421.99 17L423.99 52H419.99L421.99 17Z" fill="#CBCBCB"/>
<path fill-rule="evenodd" clip-rule="evenodd" d="M439.688 70.6985L421.304 55.1421L424.132 52.3137L439.688 70.6985Z" fill="#CBCBCB"/>
<path d="M421.99 57C424.199 57 425.99 55.2091 425.99 53C425.99 50.7909 424.199 49 421.99 49C419.781 49 417.99 50.7909 417.99 53C417.99 55.2091 419.781 57 421.99 57Z" fill="#CBCBCB"/>
<path d="M48.2232 102.236L66.7908 83.6557C69.9144 80.5308 74.9797 80.5298 78.1045 83.6533C78.1053 83.6541 78.1061 83.6549 78.1069 83.6557L127.539 133.113C130.538 136.114 132.223 140.182 132.223 144.424V472" stroke="#CBCBCB" stroke-width="8"/>
<path d="M158.223 471H105.223C103.566 471 102.223 472.343 102.223 474V475C102.223 476.657 103.566 478 105.223 478H158.223C159.88 478 161.223 476.657 161.223 475V474C161.223 472.343 159.88 471 158.223 471Z" fill="#C5CFD6"/>
<path fill-rule="evenodd" clip-rule="evenodd" d="M71.9869 77.0349C72.3333 92.5182 57.1568 108.382 38.0892 112.468L8.79524 118.745L7.54062 62.6757L36.8346 56.3983C55.9022 52.3124 71.6404 61.5517 71.9869 77.0349Z" fill="#DDE3E9"/>
<path d="M1.00689 92.2463C1.37509 107.775 5.47228 119.543 10.1582 118.532C14.8442 117.521 18.3444 104.113 17.9762 88.5849C17.608 73.0564 13.5108 61.2877 8.82486 62.2988C4.13891 63.3099 0.638694 76.7178 1.00689 92.2463Z" fill="#F2F2F2"/>
<path fill-rule="evenodd" clip-rule="evenodd" d="M235.302 145.298C239.635 140.211 242.568 133.978 242.078 126.993C240.666 106.867 212.65 111.294 207.2 121.452C201.75 131.61 202.398 157.376 209.441 159.191C212.25 159.915 218.234 158.142 224.324 154.471L220.501 181.514H243.072L235.302 145.298Z" fill="#D4A181"/>
<path fill-rule="evenodd" clip-rule="evenodd" d="M223.195 129.215C222.331 141.25 220.046 147.268 216.339 147.268C210.778 147.268 206.06 143.738 203.621 143.738C201.842 143.738 202.239 145.964 203.418 147.614C204.391 148.975 209.128 150.288 209.128 152.398C209.128 154.509 205.385 152.876 205.385 154.128C205.385 156.199 204.727 160.092 208.321 160.092C211.958 160.092 222.387 158.767 224.174 153.368C225.327 149.884 226.073 142.665 226.411 131.711C226.632 131.684 226.856 131.671 227.084 131.671C230.201 131.671 232.727 134.197 232.727 137.314C232.727 138.896 232.076 140.326 231.027 141.35C232.333 143.193 233.796 145.118 235.473 147.105C241.772 143.326 246.446 132.262 240.288 121.635C238.585 116.429 234.732 113.648 230.181 112.356C226.494 110.814 222.667 110.64 219.436 111.565C213.104 112.108 207.449 114.039 205.846 115.186C205.846 121.181 207.008 122.96 216.93 122.804C219.369 124.091 221.243 126.308 223.195 129.215Z" fill="black"/>
<path fill-rule="evenodd" clip-rule="evenodd" d="M250.595 259.571L216.5 379.22L191.623 467.408H173.479L199.914 259.571H250.595Z" fill="black"/>
<path fill-rule="evenodd" clip-rule="evenodd" d="M259.713 259.571C260.502 321.239 263.191 354.875 264.019 360.478C264.847 366.081 277.368 401.724 301.58 467.408H282.784C251.96 404.396 234.753 368.752 231.163 360.478C227.574 352.204 216.496 318.568 199.812 259.571H259.713Z" fill="#333333"/>
<path fill-rule="evenodd" clip-rule="evenodd" d="M303.26 484.336L302.319 464.587H282.57C273.206 471.17 260.98 476.499 245.893 480.574V484.336H281.63L293.856 482.455V484.336H303.26Z" fill="black"/>
<path fill-rule="evenodd" clip-rule="evenodd" d="M194.169 484.336L193.228 464.587H173.479C164.115 471.17 151.889 476.499 136.802 480.574V484.336H172.539L184.764 482.455V484.336H194.169Z" fill="black"/>
<path fill-rule="evenodd" clip-rule="evenodd" d="M171.261 244.157L142.872 268.224C134.909 270.982 128.318 274.181 123.101 277.821C121.896 279.084 120.508 281.566 125.814 280.783C131.12 279.999 136.736 279.414 137.6 281.182C138.463 282.95 135.387 285.352 137.046 287.703C138.153 289.271 142.552 284.839 150.245 274.408L179.02 260.047L171.261 244.157ZM299.811 233.742L283.154 236.162C301.034 274.954 310.619 295.47 311.911 297.709C314.816 302.747 311.399 311.521 310.063 316.166C316.814 318.115 314.658 307.685 323.194 310.287C330.986 312.661 337.415 318.044 345.132 311.643C346.08 310.856 346.879 308.283 343.864 306.784C336.352 303.048 325.321 296.213 323.607 293.694C321.269 290.258 313.337 270.274 299.811 233.742Z" fill="#D4A181"/>
<path fill-rule="evenodd" clip-rule="evenodd" d="M230.192 165.839L219.871 162.426C205.87 197.401 184.99 231.241 150.103 259.825L158.73 274.709C189.391 256.648 218.415 242.617 230.192 215.516C234.145 206.42 230.515 176.715 230.192 165.839Z" fill="#C5CFD6"/>
<path fill-rule="evenodd" clip-rule="evenodd" d="M265.642 264.273C236.076 267.408 212.805 267.408 195.828 264.273C193.724 263.885 193.392 260.363 194.368 257.973C209.558 220.754 219.974 188.278 219.974 162.426C222.761 163.831 227.639 164.042 234.608 163.058C253.335 189.699 261.944 220.266 265.642 264.273Z" fill="black"/>
<path fill-rule="evenodd" clip-rule="evenodd" d="M239.264 160.825H231.459C229.642 171.513 223.91 316.244 206.215 363.589H301.957C299.881 320.217 283.508 268.117 266.921 224.519C281.588 237.94 294.371 260.681 305.271 292.743L323.204 288.139C309.87 230.682 282.455 188.45 240.959 161.444C240.869 161.237 240.78 161.03 240.691 160.825H240C239.746 160.661 239.491 160.499 239.236 160.337L239.264 160.825V160.825Z" fill="#DDE3E9"/>
</svg>
