<svg width="552" height="498" viewBox="0 0 552 498" fill="none" xmlns="http://www.w3.org/2000/svg">
<path fill-rule="evenodd" clip-rule="evenodd" d="M533.855 307.096C526.435 282.363 509.013 263.005 490.927 245.268C455.72 210.738 436.784 189.388 424.236 138.877C416.857 109.171 409.346 77.691 385.94 56.1385C368.898 40.4435 339.566 27.257 316.775 38.4958C281.712 59.4083 272.296 102.324 275.832 140.753C280.214 188.382 302.479 217.75 345.253 235.293C369.354 245.174 385.375 258.211 398.458 280.927C408.923 299.092 415.024 321.839 428.175 338.306C447.835 362.922 472.439 373.865 502.765 369.776C474.36 317.553 441.173 264.84 401.144 220.871C397.397 216.45 375.296 199.531 379.754 191.997C384.664 183.702 407.352 214.862 407.192 214.674C418.824 228.017 429.589 242.196 440.159 256.511C440.132 256.525 440.101 256.533 440.072 256.547C450.955 271.237 461.751 286.142 472.342 301.235C476.625 307.619 480.793 314.085 484.784 320.713C490.64 330.438 499.935 358.041 509.519 364.021C511.569 365.3 513.465 366.014 515.237 366.309C521.776 377.007 528.138 387.791 534.189 398.703C549.991 427.201 563.554 457.291 569.779 489.465C571.596 498.856 570.31 533.983 576.725 540.763C588.454 553.162 585.018 529.284 584.317 522.077C578.491 462.393 557.048 411.545 525.915 361.369C535.479 348.887 536.86 317.117 533.855 307.096Z" fill="#F2F2F2" fill-opacity="0.5"/>
<path fill-rule="evenodd" clip-rule="evenodd" d="M132.151 335.934C144.516 321.376 174.239 318.906 192.418 319.88C214.913 321.086 238.018 326.558 259.418 333.174C294.672 344.072 328.928 363.96 359.977 383.209C363.718 385.528 409.816 413.229 405.735 418.091C401.693 422.907 356.44 390.002 346.355 384.331C324.833 372.226 305.096 357.909 281.373 349.915C256.81 341.636 230.832 338.358 205.002 338.584C201.687 338.614 190.874 336.304 190.641 341.205C190.412 345.998 208.304 343.497 211.46 343.526C224.491 343.645 237.602 344.871 250.448 347.128C274.517 351.355 297.144 359.872 317.758 372.935C312.007 386.298 298.218 392.46 283.753 389.116C271.252 386.224 259.066 379.095 246.824 377.033C238.394 375.614 229.952 376.458 221.777 378.831C200.212 385.094 187.775 397.923 164.065 388.999C145.478 382.003 114.393 356.869 132.151 335.934Z" fill="#F2F2F2" fill-opacity="0.5"/>
<path fill-rule="evenodd" clip-rule="evenodd" d="M146.136 198.166H151.985C151.576 190.748 151.042 183.342 149.788 176.007C145.085 148.513 130.383 108.131 98.1359 103.668C96.9463 103.502 92.5703 103.474 87.2694 103.781C84.7571 102.393 81.9429 101.554 78.9778 101.361C51.523 99.3604 20.8626 121.256 7.61932 144.041C-3.05662 162.412 -1.2581 186.536 5.33601 206.053C9.75171 219.12 19.389 237.75 35.4605 237.931C55.5677 238.159 56.5373 213.592 56.9262 199.23C57.443 180.137 59.8836 163.504 75.1032 150.489C78.6503 147.458 82.5275 144.79 86.1105 141.8C91.7209 137.121 97.921 132.329 98.6438 124.587C99.6415 113.906 93.5424 111.984 84.2301 113.968C82.6426 114.306 66.6517 121.399 69.0195 115.793C69.7422 114.08 72.3824 112.723 75.7146 111.706C84.3375 110.779 94.6208 109.704 97.5782 110.346C129.483 117.265 141.905 160.953 145.204 188.711C145.578 191.854 145.876 195.007 146.136 198.166H146.136Z" fill="#F2F2F2" fill-opacity="0.5"/>
</svg>
