<svg width="517" height="534" viewBox="0 0 517 534" fill="none" xmlns="http://www.w3.org/2000/svg">
<path fill-rule="evenodd" clip-rule="evenodd" d="M-74.6356 299.208C-73.87 325.019 -62.0513 348.227 -49.1728 370.04C-24.1021 412.506 -11.3373 438.029 -12.2897 490.066C-12.8508 520.67 -13.7434 553.022 3.28674 579.898C15.6861 599.469 40.6055 619.797 65.5291 614.84C104.81 603.716 125.012 564.699 131.543 526.665C139.637 479.524 125.732 445.394 88.9564 417.378C68.2338 401.596 56.1329 384.857 49.3755 359.528C43.9686 339.274 43.962 315.723 35.5214 296.414C22.9019 267.548 1.96902 250.61 -28.3818 246.711C-14.4615 304.505 3.95218 364.012 31.2371 416.843C33.712 422.083 50.6806 444.146 44.4254 450.269C37.5351 457.011 23.685 421.041 23.7914 421.264C16.0085 405.365 9.28081 388.883 2.7755 372.32C2.80504 372.313 2.83745 372.314 2.86947 372.307C-3.84092 355.302 -10.4117 338.11 -16.7351 320.79C-19.22 313.515 -21.573 306.191 -23.7127 298.756C-26.8521 287.846 -28.6857 258.778 -36.3951 250.521C-38.0446 248.756 -39.6908 247.575 -41.3264 246.831C-44.8732 234.805 -48.2277 222.742 -51.2483 210.636C-59.1361 179.019 -64.4493 146.445 -62.1349 113.755C-61.459 104.214 -51.1256 70.6163 -55.5673 62.408C-63.6871 47.395 -66.5483 71.3491 -67.7365 78.4923C-77.5566 137.65 -70.005 192.315 -52.9188 248.84C-65.3878 258.421 -74.9444 288.751 -74.6356 299.208Z" fill="#F2F2F2" fill-opacity="0.5"/>
<path fill-rule="evenodd" clip-rule="evenodd" d="M320.844 375.322C305.133 386.183 275.783 380.876 258.476 375.23C237.06 368.243 216.159 356.978 197.199 345.048C165.967 325.397 138.026 297.321 113.017 270.692C110.004 267.483 72.6465 228.795 77.8461 225.155C82.9972 221.549 118.192 265.045 126.466 273.134C144.121 290.397 159.48 309.334 180.326 323.195C201.909 337.55 226.153 347.439 251.161 353.906C254.371 354.736 264.218 359.765 265.712 355.092C267.173 350.521 249.244 348.306 246.203 347.462C233.647 343.974 221.3 339.396 209.475 333.892C187.321 323.579 167.669 309.496 151.138 291.543C160.153 280.123 175.066 277.74 188.172 284.714C199.499 290.743 209.425 300.784 220.716 305.943C228.492 309.496 236.864 310.866 245.375 310.689C267.826 310.221 283.16 301.048 303.752 315.805C319.895 327.373 343.416 359.696 320.844 375.322Z" fill="#F2F2F2" fill-opacity="0.5"/>
<path fill-rule="evenodd" clip-rule="evenodd" d="M271.679 504.776L266.029 503.262C264.505 510.533 263.104 517.825 262.417 525.234C259.843 553.009 263.593 595.82 293.586 608.477C294.692 608.945 298.912 610.105 304.111 611.18C306.179 613.171 308.68 614.71 311.494 615.664C337.496 624.702 372.778 611.488 391.467 592.907C406.534 577.925 411.041 554.158 409.723 533.599C408.84 519.835 404.352 499.345 388.876 495.01C369.512 489.587 362.217 513.065 358.125 526.837C352.684 545.146 346.021 560.58 327.952 569.212C323.741 571.223 319.306 572.796 315.071 574.756C308.44 577.825 301.211 580.848 298.51 588.139C294.781 598.198 300.175 601.633 309.684 602.127C311.305 602.211 328.586 599.499 324.848 604.301C323.707 605.769 320.805 606.396 317.323 606.516C308.755 605.179 298.543 603.557 295.853 602.171C266.826 587.23 266.134 541.815 270.132 514.15C270.585 511.017 271.113 507.894 271.679 504.776L271.679 504.776Z" fill="#F2F2F2" fill-opacity="0.5"/>
</svg>
